<svg width="174.878906" height="17.460938" viewBox="0 0 174.879 17.4609" fill="none" xmlns="http://www.w3.org/2000/svg" xmlns:xlink="http://www.w3.org/1999/xlink">
	<desc>
			Created with Pixso.
	</desc>
	<defs/>
	<path d="M174.85 13.86Q174.87 12.57 174.87 11.25L174.87 9.69Q174.87 8.83 174.83 7.92Q174.79 7 174.68 6.06Q174.56 5.12 174.34 4.25Q174.11 3.38 173.75 2.61Q173.39 1.85 172.85 1.28Q172.75 1.18 172.64 1.09Q172.17 0.66 171.56 0.39Q170.81 0.07 169.81 0.07Q169.27 0.07 168.79 0.21Q168.43 0.32 168.1 0.48Q167.98 0.54 167.87 0.61Q167.43 0.86 167.05 1.21Q166.78 1.47 166.53 1.75Q166.43 1.85 166.34 1.96L166.39 0.09L160.86 0.37Q160.73 4.51 160.51 8.6Q160.3 12.69 160.06 16.82L166.04 16.57Q166.1 14.48 166.13 12.43Q166.17 10.39 166.23 8.32Q166.23 8.06 166.24 7.65Q166.26 7.25 166.31 6.79Q166.37 6.33 166.47 5.88Q166.58 5.42 166.76 5.05Q166.94 4.68 167.22 4.45Q167.3 4.38 167.39 4.33Q167.61 4.21 167.89 4.21Q167.94 4.21 167.99 4.23Q168.15 4.27 168.27 4.45Q168.43 4.69 168.54 5.07Q168.65 5.44 168.72 5.9Q168.78 6.35 168.82 6.77Q168.85 7.2 168.86 7.54Q168.87 7.88 168.87 8.03Q168.87 10.14 168.62 12.21Q168.36 14.28 168.01 16.35L174.76 16.47Q174.82 15.16 174.85 13.86ZM13.25 14.68Q13.61 13.98 13.61 13Q13.61 12.22 13.37 11.53Q13.17 10.95 12.84 10.48Q12.77 10.38 12.69 10.28Q12.64 10.21 12.58 10.15Q12.17 9.68 11.63 9.35Q11 8.96 10.24 8.76Q10.87 8.61 11.37 8.29Q11.78 8.03 12.09 7.68Q12.16 7.6 12.23 7.51Q12.27 7.46 12.3 7.41Q12.6 6.99 12.77 6.48Q12.96 5.9 12.96 5.25Q12.96 4.25 12.67 3.49Q12.4 2.78 11.94 2.23Q11.91 2.19 11.87 2.15Q11.73 1.99 11.57 1.84Q11.17 1.46 10.68 1.18Q10 0.79 9.22 0.55Q8.43 0.3 7.58 0.19Q6.73 0.09 5.9 0.09Q5.19 0.09 4.42 0.16Q3.66 0.24 2.9 0.39Q2.13 0.53 1.39 0.75Q0.65 0.97 0 1.24L0.02 16.33Q0.69 16.66 1.44 16.88Q1.57 16.91 1.7 16.95Q2.32 17.12 2.96 17.22Q3.66 17.34 4.37 17.39Q4.44 17.4 4.51 17.4Q5.29 17.46 6.02 17.46Q6.76 17.46 7.61 17.4Q8.46 17.34 9.3 17.16Q10.14 16.99 10.92 16.68Q11.7 16.37 12.3 15.87Q12.53 15.68 12.73 15.46Q13.04 15.11 13.25 14.68ZM26.95 9.75Q27.09 8.73 27.09 7.71Q27.09 6.75 26.93 5.81Q26.77 4.88 26.45 4.04Q26.13 3.21 25.63 2.5Q25.28 2 24.84 1.6Q24.65 1.44 24.46 1.29Q23.78 0.78 22.92 0.49Q22.06 0.21 21.02 0.21Q19.76 0.21 18.73 0.57Q17.72 0.92 16.91 1.54Q16.89 1.56 16.87 1.58Q16.61 1.78 16.37 2.01Q15.85 2.5 15.43 3.08Q15.4 3.13 15.37 3.18Q14.8 4 14.41 4.95Q14.41 4.96 14.41 4.96Q14.01 5.97 13.81 7.05Q13.61 8.14 13.61 9.23Q13.61 9.86 13.69 10.49Q13.73 10.89 13.81 11.29Q14.01 12.31 14.4 13.23Q14.73 14.02 15.22 14.7Q15.29 14.81 15.37 14.91Q15.7 15.35 16.1 15.73Q16.4 16.01 16.74 16.25Q16.75 16.26 16.76 16.27Q17.53 16.83 18.48 17.14Q19.44 17.46 20.6 17.46Q21.16 17.46 21.75 17.39Q21.84 17.37 21.93 17.36Q22.42 17.29 22.91 17.16Q23.41 17.03 23.89 16.82Q23.95 16.79 24.01 16.76Q24.47 16.55 24.88 16.26Q24.94 16.21 25 16.17L25.57 10.85Q25.2 11.09 24.7 11.4Q24.19 11.7 23.64 11.97Q23.09 12.23 22.54 12.41Q21.98 12.58 21.51 12.58Q20.86 12.58 20.35 12.32Q20.14 12.22 19.96 12.08Q19.81 11.96 19.68 11.83Q19.24 11.38 19 10.73Q20.98 10.45 22.96 10.16Q24.94 9.87 26.95 9.75ZM144.27 16.17L144.76 10.96L140 10.96L140.87 0.21L134.77 0.21L134.4 16.94L144.27 16.17ZM39.31 13.95Q39.86 12.78 39.86 11.17Q39.86 10.24 39.59 9.46Q39.33 8.72 38.85 8.18Q38.82 8.15 38.79 8.12Q38.76 8.08 38.73 8.05Q38.22 7.53 37.52 7.21Q36.77 6.87 35.83 6.82Q35.64 6.8 35.35 6.82Q35.06 6.84 34.72 6.86Q34.38 6.87 34.03 6.87Q33.69 6.87 33.4 6.81Q33.11 6.75 32.93 6.6Q32.87 6.56 32.83 6.5Q32.75 6.38 32.74 6.21Q32.73 6.06 32.78 5.95Q32.81 5.88 32.85 5.82Q32.98 5.66 33.19 5.56Q33.41 5.46 33.67 5.4Q33.94 5.34 34.21 5.31Q34.47 5.28 34.71 5.27Q34.95 5.27 35.1 5.27Q35.94 5.27 36.81 5.45Q37.68 5.63 38.48 5.9L38.92 1.14Q38.41 0.9 37.83 0.73Q37.26 0.57 36.66 0.46Q36.19 0.38 35.71 0.34Q35.58 0.33 35.44 0.32Q34.83 0.28 34.26 0.28Q33.48 0.28 32.73 0.43Q32.24 0.52 31.76 0.69Q30.66 1.06 29.79 1.73Q29.71 1.8 29.63 1.86Q29.26 2.17 28.95 2.52Q28.48 3.06 28.14 3.73Q27.58 4.82 27.58 6.21Q27.58 7.21 27.91 8.04Q28.2 8.78 28.71 9.33Q28.77 9.39 28.83 9.45Q28.9 9.51 28.97 9.58Q29.52 10.06 30.25 10.34Q31.07 10.66 32.08 10.66L32.46 10.66Q32.69 10.66 32.96 10.68Q33.23 10.71 33.51 10.76Q33.79 10.81 34.01 10.91Q34.24 11.01 34.38 11.17Q34.43 11.23 34.47 11.31Q34.52 11.42 34.52 11.55Q34.52 11.81 34.39 11.98Q34.36 12.02 34.32 12.05Q34.12 12.23 33.83 12.32Q33.55 12.41 33.23 12.42Q32.91 12.44 32.69 12.44Q31.52 12.44 30.31 12.13Q29.09 11.82 28.1 11.22L27.58 15.82Q28.08 16.05 28.74 16.31Q29.39 16.58 30.09 16.81Q30.79 17.03 31.48 17.19Q32.16 17.34 32.74 17.34Q34.23 17.34 35.52 16.98Q36.82 16.62 37.78 15.87Q38.03 15.67 38.25 15.45Q38.89 14.81 39.31 13.95ZM154.27 16.92L160.09 16.17L155.52 0.39L149 0.72L144.34 16.33L150.31 16.92L150.9 14.27L153.57 14.27L154.27 16.92ZM133.47 8.39Q133.81 7.51 133.81 6.37Q133.81 5.34 133.51 4.5Q133.21 3.65 132.7 3Q132.56 2.81 132.4 2.65Q131.99 2.21 131.47 1.86Q130.77 1.39 129.94 1.07Q129.11 0.76 128.21 0.61Q127.31 0.46 126.41 0.46Q124.81 0.46 123.31 0.69Q121.81 0.91 120.31 1.35Q120.24 2.81 120.25 4.24Q120.26 4.71 120.26 5.19Q120.26 6.14 120.24 7.1Q120.23 8.44 120.22 9.71Q120.22 10.98 120.21 12.22Q120.21 13.47 120.2 14.74Q120.19 16 120.19 17.34L125.66 17.34L125.66 12.35Q126.59 12.33 127.57 12.2Q128.54 12.07 129.45 11.78Q130.35 11.49 131.15 11.04Q131.78 10.68 132.28 10.2Q132.42 10.07 132.54 9.93Q132.57 9.89 132.6 9.86Q133.15 9.22 133.47 8.39ZM52.62 5.62L52.74 0.65L39.97 0.67L39.83 6.21L43.32 6.02L43.76 16.89L48.71 16.64L49.13 5.76L52.62 5.62ZM7.52 5.74Q7.66 5.98 7.66 6.32Q7.66 6.86 7.4 7.17Q7.27 7.34 7.1 7.46Q6.95 7.57 6.77 7.64Q6.58 7.72 6.39 7.77Q6.2 7.82 6.01 7.85Q5.61 7.89 5.34 7.89L5.41 5.29Q5.62 5.2 5.84 5.13Q5.94 5.1 6.05 5.08Q6.17 5.06 6.3 5.06Q6.49 5.06 6.73 5.13Q6.81 5.15 6.88 5.18Q7.04 5.25 7.17 5.35Q7.38 5.5 7.52 5.74ZM22.33 6.42Q22.4 6.77 22.4 7.1L22.4 7.35L18.93 7.68Q19.01 7.31 19.18 6.86Q19.34 6.42 19.6 6.04Q19.83 5.7 20.13 5.46Q20.17 5.43 20.22 5.4Q20.33 5.32 20.45 5.27Q20.72 5.15 21.04 5.15Q21.43 5.15 21.69 5.33Q21.79 5.4 21.87 5.49Q22 5.62 22.1 5.8Q22.26 6.08 22.33 6.42ZM128.33 5.78Q128.61 6.17 128.61 6.77Q128.61 7.2 128.44 7.54Q128.43 7.56 128.43 7.57Q128.34 7.74 128.23 7.88Q128.1 8.05 127.94 8.19Q127.87 8.26 127.78 8.32Q127.54 8.49 127.24 8.6Q127.09 8.65 126.92 8.69Q126.68 8.74 126.43 8.74L126.11 8.74Q125.96 8.74 125.8 8.71L125.94 5.29Q126.17 5.23 126.43 5.19Q126.7 5.15 126.94 5.15Q127.52 5.15 127.93 5.42Q128.05 5.49 128.14 5.58Q128.25 5.67 128.33 5.78ZM152.26 6.6L153.15 10.68L151.39 10.68L152.26 6.6ZM5.34 10.21Q5.66 10.14 6 10.14Q6.24 10.14 6.53 10.2Q6.71 10.23 6.88 10.3Q6.98 10.35 7.07 10.41Q7.32 10.57 7.49 10.85Q7.66 11.13 7.66 11.57Q7.66 12.02 7.49 12.29Q7.36 12.49 7.19 12.63Q7.13 12.68 7.06 12.72Q6.9 12.81 6.73 12.87Q6.62 12.91 6.51 12.93Q6.22 12.98 5.97 12.98Q5.81 12.98 5.64 12.95Q5.47 12.92 5.29 12.89L5.34 10.21Z" fill="#333333" fill-opacity="1.000000" fill-rule="evenodd"/>
	<path d="M114.51 7.54Q114.66 6.79 114.66 5.88Q114.66 4.41 114.08 3.31Q113.71 2.6 113.17 2.04Q112.88 1.73 112.54 1.47Q111.58 0.73 110.33 0.36Q110.1 0.3 109.87 0.24Q108.84 0 107.75 0Q106.88 0 106.06 0.04Q105.23 0.08 104.43 0.19Q103.62 0.3 102.83 0.5Q102.03 0.7 101.21 1Q101.14 2.35 101.12 3.67Q101.09 5 101.07 6.35Q101 9.02 100.95 11.67Q100.89 14.32 100.84 16.99L105.87 16.99L106.09 12.11L107.54 12.07L109.34 17.06L114.62 16.03L111.83 11.06Q112.59 10.58 113.13 10.05Q113.67 9.52 114.01 8.9Q114.35 8.28 114.51 7.54ZM70.39 5.62L70.51 0.65L57.73 0.67L57.59 6.21L61.08 6.02L61.53 16.89L66.48 16.64L66.9 5.76L70.39 5.62ZM99.32 8.88Q99.7 4.8 100.23 0.67Q99.63 0.71 99.04 0.72Q98.44 0.72 97.86 0.72Q97.1 0.72 96.35 0.71Q95.6 0.7 94.83 0.67Q94.86 0.91 94.87 1.13Q94.88 1.35 94.88 1.59Q94.88 1.95 94.86 2.61Q94.85 3.26 94.81 4.09Q94.76 4.92 94.68 5.85Q94.6 6.79 94.47 7.71Q94.33 8.63 94.14 9.48Q93.94 10.32 93.67 10.96Q93.41 11.61 93.05 11.99Q92.8 12.27 92.49 12.34Q92.38 12.37 92.26 12.37Q92.09 12.37 91.95 12.3Q91.79 12.22 91.68 12.04Q91.47 11.7 91.37 11.26Q91.33 11.08 91.3 10.9Q91.26 10.63 91.25 10.35Q91.23 9.9 91.23 9.65Q91.23 8.58 91.35 7.54Q91.48 6.5 91.69 5.46Q91.77 5.1 91.85 4.73Q92 4.06 92.17 3.4Q92.43 2.37 92.7 1.35Q91.27 1.38 89.83 1.32Q88.39 1.26 86.96 1.19Q86.7 2.21 86.53 3.32Q86.36 4.44 86.26 5.57Q86.15 6.71 86.11 7.84Q86.07 8.97 86.07 10.03Q86.07 10.74 86.24 11.5Q86.41 12.26 86.73 13Q86.78 13.12 86.84 13.23Q87.13 13.84 87.52 14.39Q87.99 15.05 88.58 15.55Q88.91 15.84 89.29 16.06Q89.57 16.22 89.87 16.35Q90.02 16.41 90.18 16.47Q90.74 16.65 91.37 16.66Q91.71 16.67 92.08 16.62Q92.43 16.57 92.75 16.46Q92.78 16.45 92.81 16.44Q93.04 16.36 93.26 16.24Q93.37 16.18 93.47 16.12Q93.75 15.94 93.97 15.71Q93.99 15.68 94.01 15.65L93.8 17.46L98.61 17.1Q98.95 12.97 99.32 8.88ZM85.19 10.25Q85.44 9.26 85.44 8.2Q85.44 6.49 84.89 5.1Q84.41 3.86 83.57 2.95Q83.46 2.84 83.36 2.73Q83.26 2.64 83.16 2.55Q82.23 1.7 80.97 1.23Q79.57 0.7 77.87 0.7Q76.81 0.7 75.86 0.99Q75.09 1.23 74.41 1.62Q74.25 1.71 74.1 1.81Q73.8 2.01 73.52 2.23Q73.04 2.61 72.63 3.07Q72.34 3.38 72.1 3.72Q71.77 4.17 71.51 4.66Q71.48 4.71 71.45 4.77Q71.03 5.59 70.8 6.5Q70.72 6.83 70.66 7.15Q70.55 7.82 70.55 8.5Q70.55 9.55 70.82 10.51Q71.08 11.47 71.56 12.31Q71.81 12.75 72.11 13.15Q72.38 13.5 72.7 13.83Q73.02 14.15 73.36 14.42Q73.76 14.74 74.21 15Q74.25 15.02 74.29 15.05Q75.09 15.5 76 15.76Q76.95 16.03 78.01 16.03Q79.1 16.03 80.07 15.74Q81.04 15.45 81.87 14.94Q82.23 14.71 82.55 14.45Q82.98 14.11 83.36 13.7Q83.64 13.39 83.89 13.05Q84.22 12.61 84.48 12.11Q84.94 11.25 85.19 10.25ZM109.28 5.35Q109.41 5.76 109.41 6.25Q109.41 6.84 109.15 7.26L109.15 7.26Q109.01 7.48 108.83 7.66Q108.67 7.82 108.47 7.95Q108.05 8.22 107.53 8.35Q107.01 8.48 106.51 8.48L106.23 8.48L106.41 4.12Q106.62 4.06 106.85 4.03Q107.07 4 107.3 4Q107.83 4 108.22 4.17Q108.56 4.32 108.81 4.56Q108.84 4.6 108.88 4.64Q108.89 4.65 108.89 4.66Q109.15 4.95 109.28 5.35ZM80.17 7.85Q80.23 8.17 80.23 8.5Q80.23 8.83 80.17 9.15Q80.13 9.33 80.07 9.5Q79.91 9.95 79.63 10.31Q79.62 10.33 79.6 10.35Q79.49 10.48 79.36 10.6Q79.13 10.8 78.86 10.93Q78.42 11.15 77.87 11.15Q77.35 11.15 76.95 10.93Q76.92 10.92 76.9 10.91Q76.71 10.79 76.55 10.65Q76.36 10.48 76.2 10.26Q76.18 10.23 76.16 10.2Q75.91 9.82 75.78 9.37Q75.64 8.88 75.64 8.39Q75.64 7.91 75.78 7.49Q75.79 7.45 75.8 7.41Q75.94 7.01 76.19 6.7Q76.23 6.65 76.28 6.6Q76.38 6.48 76.5 6.38Q76.74 6.19 77.02 6.05Q77.46 5.85 78.01 5.85Q78.54 5.85 78.95 6.08Q78.96 6.08 78.96 6.08Q79.22 6.23 79.43 6.43Q79.56 6.54 79.66 6.68Q79.94 7.05 80.09 7.52Q80.14 7.68 80.17 7.85Z" fill="#EC1F46" fill-opacity="1.000000" fill-rule="evenodd"/>
</svg>
